<?xml version="1.0" encoding="utf-8"?>
<!-- Generator: Adobe Illustrator 21.0.0, SVG Export Plug-In . SVG Version: 6.00 Build 0)  -->
<svg version="1.1" id="Calque_1" xmlns="http://www.w3.org/2000/svg" xmlns:xlink="http://www.w3.org/1999/xlink" x="0px" y="0px"
	 viewBox="0 0 100 100" style="enable-background:new 0 0 100 100;" xml:space="preserve">
<style type="text/css">
	.st0{fill:#606060;}
</style>
<g>
	<path class="st0" d="M90.4,12.4c-0.1,0.1-0.1,0.2-0.2,0.2c-1.5,0.7-2.1,2-2.9,3.3c-1.5,2.6-2.3,5.4-3.3,8.1
		c-0.8,2.2-1.5,4.5-2.3,6.7c-0.6,1.6-1.5,3-2.8,4.1c-1.4,1.3-3,1.3-4.6,0.7c-0.7-0.2-0.9-0.2-1.2,0.4c-1.3,2.7-2.5,5.5-3.8,8.2
		c-0.2,0.5-0.2,0.6,0.4,0.6c3.1,0.1,6.2,0.2,9.3,0.3c0.5,0,0.9,0,1.4-0.1c0.8-0.1,1.3,0.3,1.1,1.2c-0.1,0.4-0.1,0.9-0.1,1.3
		c0,0.7,0.3,1,1,1.1c0.5,0.1,1,0.1,1.5,0.1c1.3,0,2.4-0.5,3.6-0.9c1-0.4,2.1-0.2,3.1,0c0.6,0.2,1.1,0.6,1.3,1.2
		c0.2,0.6,0.4,1.2,0.4,1.8c-0.1,1.3-1.2,2.2-2.6,2.2c-1.2,0-2.3-0.1-3.5-0.3c-1.3-0.2-2.6,0-3.7,0.8c-0.5,0.4-1,1-1.1,1.8
		c0,0.3-0.3,0.7-0.6,0.7c-1,0.1-2,0.3-2.9,0.2c-3.8-0.1-7.5-0.3-11.3-0.5c-0.4,0-0.7,0.1-0.8,0.5c-0.9,1.9-1.7,3.7-2.6,5.6
		c-0.6,1.2-1.1,2.3-1.7,3.5c-0.7,1.4-1.3,2.8-2,4.2c-0.3,0.6-0.7,1.1-1.1,1.5c-0.9,0.9-1.4,0.8-2.3,0.3c-0.5-0.3-0.7-1.2-0.5-2
		c0.7-2.4,1.8-4.7,2.9-7c0.9-2,1.7-4,2.5-6c0.1-0.2,0.1-0.3,0.1-0.6c-0.2,0-0.4-0.1-0.6-0.1c-1.7,0-3.4,0-5.1-0.1
		c-0.5,0-0.6,0.2-0.6,0.6c0,2.3-0.1,4.6-0.1,6.9c0,1.9,0,3.8,0.1,5.8c0,0.5,0.3,1.1,0.5,1.6c0.8,1.3,0.9,2.7,0.8,4.1
		c-0.1,1-0.9,1.8-1.8,2.4c-1.9,1.3-4.4,0-5.2-1.7c-0.4-0.8-0.6-1.7-0.3-2.6c0.7-2.3,1-4.8,1.2-7.2c0.2-3,0.4-5.9,0.6-8.9
		c0-0.7,0-0.7-0.7-0.7c-2.1,0-4.2-0.1-6.4-0.1c-0.7,0-1.3,0.1-2.1,0.2c0.2,1,0.5,1.9,0.7,2.8c0.4,1.8,0.9,3.5,1.3,5.3
		c0.2,0.8,0.4,1.7,0.5,2.6c0.1,1,0.1,1.9,0.2,2.9c0,0.5,0,1,0.1,1.4c0.1,0.5,0.1,0.8-0.4,0.9c0.1,0.4,0.3,0.8,0.4,1.2
		c0.1,0.9-0.3,1.4-1.1,1.7c-0.4,0.1-0.8,0.3-1.2,0.3c-0.5,0-0.8-0.3-0.7-0.7c0.2-1-0.2-1.8-0.6-2.6c-0.6-1.4-0.7-2.9-1.1-4.4
		c-0.7-2.6-1.4-5.3-2.1-7.9c-0.2-0.8-0.4-1.7-0.5-2.5c-0.1-0.5-0.3-0.7-0.9-0.7c-1.9,0.1-3.9,0.3-5.8,0.3c-2.4,0.1-4.8,0.1-7.2,0.1
		c-0.6,0-1.2,0.1-1.8,0c-0.3,0-0.5-0.3-0.8-0.4c-0.9-0.6-0.8-1.4-0.6-2.3c0.1-0.4-0.2-0.7-0.6-0.8c-1.3-0.3-2.7-0.1-4,0.2
		c-1.1,0.2-2.1,0.4-3.2,0.5c-1.7,0.2-2.6-0.7-3.2-2c-0.3-0.6,0-1.3,0.3-1.8c0.6-1.1,1.5-1.8,2.9-1.9c1.4,0,2.7,0.3,4,0.7
		c0.7,0.2,1.5,0.4,2.3,0.5c0.8,0.1,1.4-0.4,1.9-1c0.1-0.2,0.1-0.4,0.1-0.7c0-0.9-0.1-1.8-0.2-2.7c0-0.7,0.2-0.9,0.8-0.9
		c2.1,0.1,4.3,0.2,6.4,0.2c1.2,0,2.3-0.2,3.6-0.2c-0.6-1-1.2-2-1.8-2.9c-0.8-1.4-1.6-2.7-2.4-4.1c-0.2-0.4-0.5-0.7-0.7-1.1
		c-2.1-3.1-4.3-6.2-5.8-9.6c-1-2.3-1.8-4.6-2.5-7c-0.6-1.8-0.6-3.8,0.1-5.6c0.5-1.3,1.3-2.1,2.7-2.4c0.6-0.1,1.1-0.6,1.6-0.9
		c1.4-0.7,2.8-1.4,4.5-1.4c0.5,0,1,0,1.5-0.1c1.6-0.4,3,0.4,3.5,1.9c1.1,3.2,1.7,6.4,2.1,9.7c0.3,1.9,0.7,3.8,1.1,5.8
		c0.5,2.7,1.1,5.4,1.6,8.1c0.5,3,1,6,1.4,9.1c0.1,0.5,0.3,0.6,0.7,0.6c3.1,0.1,6.3,0.1,9.4,0.2c0.7,0,1.3,0,2,0.1
		c0.8,0,0.9,0,0.9-0.8c0-2.3,0-4.6,0-6.9c0-0.7-0.1-1.4-0.1-2.1c0-0.2-0.2-0.5-0.3-0.6c-1.4-0.7-2.4-1.9-3.3-3.1
		c-1.6-2.1-2.3-4.6-3-7.1c-0.9-3.6-0.9-7.2-0.5-10.8c0.3-3.2,1.9-5.5,4.2-7.6c0.3-0.2,0.6-0.4,0.9-0.6c0.8-0.4,1.6-1,2.5-1.3
		c2.3-0.8,4.7-0.6,7.1,0c2.3,0.6,3.8,2.1,5.1,3.9c1.1,1.4,1.3,3.1,1.5,4.8c0.4,2.9,0,5.8-0.4,8.7c-0.1,0.8-0.4,1.7-0.8,2.5
		c-0.6,1.4-1.3,2.8-1.9,4.2c-0.8,1.9-1.9,3.6-3.7,4.9c-0.7,0.5-1.4,1.1-2.3,1.4c-0.2,0-0.3,0.4-0.3,0.6c-0.1,1.1-0.2,2.2-0.2,3.3
		c-0.1,2-0.1,4-0.2,6c0,0.5,0.1,0.7,0.6,0.7c2.8,0.1,5.6,0.2,8.4,0.3c0.5,0,0.8-0.1,1-0.6c0.5-1.4,1.1-2.7,1.6-4.1
		c0.6-1.5,1.3-2.9,1.9-4.4c0.3-0.7,0.5-1.3,0.8-2c0.1-0.3,0-0.5-0.2-0.6c-0.5-0.4-1.1-0.7-1.6-1.1c-0.8-0.6-1-1.4-0.9-2.3
		c0.3-2.9,1.1-5.6,2.2-8.2c1.6-3.6,3.1-7.4,4.5-11.1c0.6-1.6,1.8-2.7,3.1-3.7c0.3-0.2,0.7-0.1,1,0.1c1,0.6,1.9,1.2,3,1.7
		c1.6,0.7,3.2,1.3,4.8,1.9c0.8,0.3,1.6,0.8,2.4,1.1c0.8,0.3,1.6,0.6,2.4,0.9C90.1,12.1,90.2,12.2,90.4,12.4z M80.3,54.8
		c0-0.3,0-0.6,0-0.8c0-1.5-0.1-2.9,0-4.4c0-1,0.1-2,0.2-3c0-0.5-0.1-0.6-0.6-0.6c-0.2,0-0.4,0-0.7,0c-2.4,0-4.9-0.1-7.3-0.1
		c-5.3-0.1-10.6-0.2-15.8-0.3c-0.4,0-0.7,0-1.1-0.1c-1.9-0.1-3.8-0.3-5.7-0.4c-4.9-0.1-9.9-0.1-14.9-0.2c-4.3-0.1-8.7,0.2-13,0.3
		c-0.4,0-0.6,0.2-0.6,0.6c0,0.6,0,1.1,0,1.7c0,2.3-0.1,4.6-0.1,6.9c0,0.5,0.1,0.7,0.6,0.7c1.3,0,2.6,0.1,3.9,0.1
		c4.1-0.1,8.2-0.2,12.2-0.3c5.9-0.1,11.8-0.2,17.6-0.3c2,0,4,0.1,6,0.2c1.8,0.1,3.7,0.3,5.5,0.3c3.2,0,6.4,0,9.6-0.1
		c0.7,0,1.4,0,2.1-0.1C79,54.6,79.6,54.3,80.3,54.8z M51.9,7.5c-0.2,0.2-0.3,0.3-0.4,0.4c-1,1.1-2,2.1-2.9,3.3
		c-0.9,1.1-1.6,2.3-1.8,3.8c-0.2,1.1-0.3,2.1-0.4,3.2c0,0.3,0,0.6,0.1,0.9c0.1-0.1,0.2-0.1,0.2-0.1c1.5-1.8,3-3.5,4.5-5.3
		c0.1-0.1,0.2-0.2,0.3-0.3c0.1,0,0.2,0,0.3,0c0,0.1,0,0.2,0,0.3c0,0.1-0.1,0.2-0.2,0.3c-0.8,1-1.7,1.9-2.5,2.9
		c-0.9,1-1.8,2.1-2.4,3.4c-0.4,0.8-0.1,1.7,0,2.6c0.2-0.2,0.3-0.3,0.4-0.4c1.3-1.7,2.5-3.5,3.8-5.2c0.1-0.2,0.4-0.3,0.6-0.4
		c-0.1,0.3-0.1,0.5-0.2,0.7c-1.3,1.9-2.7,3.8-4,5.7c-0.2,0.3-0.3,0.8-0.2,1.2c0,0.4,0.3,0.9,0.4,1.4c0.1-0.2,0.2-0.2,0.3-0.3
		c1.3-1.9,2.6-3.7,4-5.6c0.1-0.2,0.4-0.2,0.6-0.3c0,0.2-0.1,0.4-0.1,0.6c0,0-0.1,0.1-0.1,0.1c-1.3,1.9-2.6,3.8-3.9,5.8
		c-0.6,0.9-0.4,1.5,0.4,2.3c0.1-0.1,0.2-0.2,0.2-0.3c0.9-1.3,1.8-2.6,2.7-3.9c0.3-0.4,0.5-0.9,0.8-1.3c0.1-0.2,0.3-0.2,0.5-0.3
		c0,0.2,0.1,0.5-0.1,0.6c-0.7,1-1.5,1.8-2.1,2.8c-0.6,0.8-1,1.7-1.5,2.6c-0.1,0.2-0.2,0.5-0.1,0.7c0.3,0.4,0.6,0.8,1,1.3
		c0.2-0.3,0.3-0.4,0.4-0.6c1-1.6,1.9-3.2,2.9-4.8c0.1-0.2,0.4-0.4,0.7-0.5c-0.1,0.3-0.1,0.6-0.2,0.8c-1,1.7-2,3.3-2.9,4.9
		c-0.4,0.7-0.3,0.9,0.5,1.3c0.7-1.4,1.5-2.9,2.2-4.3c0.2-0.3,0.3-0.6,0.5-0.9c0.1-0.1,0.3-0.1,0.5-0.1c0,0.2,0.1,0.3,0.1,0.5
		c0,0.1-0.1,0.2-0.2,0.3c-0.6,1-1.3,2-1.8,3.1c-0.4,0.9-0.8,1.8-0.9,2.8c-0.2,1.1,0,2.2,0,3.4c0,2.1-0.1,4.2-0.1,6.3
		c0,1.6,0,1.6,1.6,1.5c0.4,0,0.5-0.2,0.5-0.6c0-1.6,0-3.2,0.1-4.7c0-1.6,0.2-3.2,0.2-4.8c0-0.8,0-0.8,0.8-1.1
		c2.1-0.6,3.6-1.9,4.7-3.7c0.6-1,1-2.2,1.7-3.2c1.2-2,1.9-4.2,2.3-6.5c0.4-2.1,0.4-4.3,0.3-6.5c-0.1-2.1-0.8-4-2-5.7
		c-1-1.4-2.4-2.3-4-3c-2-0.8-4-1.1-6.1-0.9c-1.3,0.2-2.3,1-3.4,1.6c-2.1,1.2-3.4,3.1-4.1,5.5c-0.8,3.1-1,6.2-0.6,9.4
		c0.5,3.6,1.4,7.1,3.7,10c0.9,1.2,2,2,3.2,2.8c0.2,0.1,0.4,0.1,0.6,0.2c-0.1-0.3-0.4-0.5-0.5-0.7c-1-1.3-2.3-2.5-3.1-3.9
		c-1-1.8-1.4-3.9-1.7-5.9c-0.5-3.8,0-7.6,1.3-11.2c0.7-1.8,1.4-3.6,2.9-5c0.6-0.5,1.1-1.2,2.1-0.7c-0.2,0.2-0.4,0.3-0.6,0.5
		c-0.8,0.7-1.6,1.5-2.4,2.3C48.5,9,48.1,9.9,48,11c0.1-0.1,0.2-0.2,0.3-0.2c0.9-1,1.8-2,2.8-3C51.2,7.5,51.4,7.2,51.9,7.5z
		 M89.2,12.4c-0.2-0.2-0.3-0.3-0.5-0.3c-1.5-0.7-3-1.4-4.6-2C82.1,9.2,80,8.4,78,7.5c-0.2-0.1-0.4-0.3-0.6-0.4c-0.4-0.3-1-0.3-1.4,0
		c-1.1,0.9-1.9,2-2.4,3.3c-1.2,3.1-2.5,6.2-3.7,9.3c-1.1,2.7-2.4,5.4-2.7,8.3c-0.2,1.2-0.2,2.3,0.8,3.1c0.5,0.4,1,0.8,1.5,1.1
		c0.7,0.4,1.1,0.8,0.7,1.6c-0.2,0.4-0.3,0.8-0.4,1.2c-0.7,2.5-1.7,4.8-2.7,7.1c-0.3,0.8-0.7,1.6-1,2.5c0.6,0.1,1.1,0.2,1.5,0.2
		c0.2,0,0.5-0.3,0.6-0.5c1.1-2.4,2.2-4.9,3.4-7.4c0.5-1.1,1.1-2.2,1.7-3.3c0.2,0.1,0.4,0.1,0.5,0.2c0.9,0.4,1.7,0.6,2.7,0.6
		c1.4,0,2.3-0.7,2.9-1.8c0.7-1.2,1.2-2.5,1.7-3.7c1.6-3.7,3.2-7.4,4.8-11.1C86.6,15.8,87.2,13.7,89.2,12.4z M33.5,43.1
		c0,0,0.1,0,0.1-0.1c0-0.1,0-0.2,0-0.2c-0.4-1.2-0.9-2.4-1.3-3.6c-0.8-2.4-1.6-4.8-2.4-7.2c-0.5-1.6-0.7-3.2-1.2-4.7
		c-1.2-4.4-2.6-8.7-4.1-13c-0.2-0.4-0.3-0.7-0.9-0.7c-0.2,0-0.3-0.1-0.5-0.2c-0.5-0.3-0.8-0.3-1.1,0.1c-0.4,0.8-0.8,1.6-0.7,2.5
		c0.1,0.7,0.2,1.5,0.4,2.2c0.7,3.1,1.7,6.1,3,9c0.8,1.7,1.6,3.4,2.5,5.1c0.7,1.4,1.7,2.6,2.4,4c1,1.8,1.9,3.7,2.9,5.6
		C33,42.3,33.2,42.7,33.5,43.1z M35.3,43.1c-0.1-0.7-0.2-1.3-0.3-1.8c-0.5-3.2-0.9-6.4-1.5-9.6c-0.9-4.5-1.9-9-2.9-13.4
		c-0.4-1.6-0.8-3.2-1.6-4.6c-0.4-0.6-0.8-1.1-1.6-1.2c-0.6-0.1-1.4,0.7-1.3,1.3c0.1,0.8,0.2,1.5,0.4,2.3c0.8,2.9,1.6,5.9,2.4,8.8
		c0.7,2.6,1.3,5.2,2.1,7.7c1.1,3.5,2.4,7,3.6,10.5c0.1,0.2,0.3,0.4,0.5,0.6C35.2,43.5,35.3,43.2,35.3,43.1z M20.3,11.8
		c-0.9,0.1-1.3,0.3-1.7,0.9c-0.8,1.3-1.1,2.7-0.9,4.2c0.2,1.8,0.8,3.6,1.4,5.3c1.3,3.7,3.1,7.2,5.3,10.4c0.4,0.6,0.8,1.1,1.2,1.7
		c0.3,0.4,0.7,0.8,1,1.2c0.5,0.7,1.1,1.4,1.6,2.2c0.1,0,0.1-0.1,0.2-0.1c-0.1-0.2-0.2-0.3-0.3-0.5c-0.9-1.4-1.8-2.8-2.5-4.2
		c-0.7-1.4-1.3-2.9-2-4.3c-0.5-1-1-2.1-1.3-3.2c-0.7-2.7-1.2-5.4-1.8-8.1c-0.3-1.6-0.6-3.2-0.1-4.8C20.4,12.3,20.3,12.1,20.3,11.8z
		 M53.7,55.6c-0.6,0-1.1,0-1.6,0c-0.3,0-0.4,0.1-0.4,0.4c0,2.3-0.2,4.7-0.4,7c-0.3,3.2-0.8,6.3-1.4,9.4c-0.2,1-0.1,2,0.4,2.8
		c0.1,0.2,0.3,0.4,0.5,0.5c0.2,0.2,0.5,0.3,0.8,0.4c0.5,0.3,1,0.5,1.6,0.2c1.3-0.6,2.2-2.9,1.7-4.3c-0.4-1.1-0.9-2.1-1.1-3.2
		c-0.5-2.4-0.3-4.9-0.2-7.4C53.6,59.6,53.7,57.6,53.7,55.6z M27.8,9.2c0.1,0.1,0.2,0.3,0.3,0.4c0.6,0.9,1.2,1.7,1.7,2.6
		c1,1.9,1.3,4.1,1.7,6.2c0.7,3.5,1.3,7,2.1,10.5c0.9,4.4,1.8,8.8,2.3,13.2c0,0.4,0.1,0.8,0.2,1.2c0,0.1,0.2,0.2,0.3,0.3
		c0.1-0.2,0.2-0.3,0.2-0.5c-0.2-2.1-0.5-4.3-0.8-6.4c-0.4-2.8-1-5.6-1.5-8.4c-0.5-2.5-1.2-5-1.6-7.5c-0.5-3.2-0.9-6.4-1.9-9.5
		c-0.2-0.5-0.4-1.1-0.7-1.5C29.7,9.1,28.8,8.8,27.8,9.2z M62.4,55.6c-0.4,0.6-0.7,1.2-1,1.8c-0.6,1.4-1.2,2.8-1.8,4.1
		c-0.5,1.2-1,2.3-1.4,3.5c-0.2,0.5-0.2,1-0.4,1.4c-0.5,1-0.8,2-0.8,3.1c0,0.4,0.1,0.8,0.2,1.1c0.3-0.1,0.4-0.3,0.5-0.5
		c0.8-1.5,1.6-3,2.4-4.5c1-1.9,2-3.8,2.9-5.8c0.5-1.2,1-2.4,1.4-3.6c0.2-0.4,0.1-0.6-0.4-0.6C63.4,55.7,62.9,55.6,62.4,55.6z
		 M23.6,25.7c1.4,5.2,3.9,9.9,7.3,14.1C28.7,35,25.2,30.9,23.6,25.7z M29.8,13.8c-0.5-1.4-1.3-2.6-2.2-3.7c-0.1-0.2-0.3-0.3-0.5-0.4
		c-0.1,0-0.2-0.1-0.3,0c-0.3,0.1-0.8,1-0.7,1.4c0.1,0.4,0.5,0.6,1,0.7c0.5,0.1,1,0.2,1.4,0.5C29,12.7,29.4,13.3,29.8,13.8z M42,65.5
		c-0.5,0.2-1,0.4-1.4,0.6c-0.1,0.1-0.3,0.3-0.2,0.5c0.1,0.7,0.6,0.5,1,0.4C42.4,66.8,42.5,66.7,42,65.5z M39.2,61.6
		c0.2,0.4,0.3,1,0.5,1c0.5,0,1.1-0.2,1.6-0.4c0.1,0,0-0.5,0-0.8C40.6,61.4,40,61.5,39.2,61.6z M26.1,9.3c-1.4-0.1-2,0.5-1.7,1.7
		C25.7,11.2,25.7,10.1,26.1,9.3z M22,10.9c0.6,0.2,1.2,0.5,1.8,0.7c0-0.5,0-0.9,0-1.2c0-0.1-0.2-0.3-0.3-0.3
		C23.2,10,22.3,10.5,22,10.9z M21.2,13.5c0,0,0.1,0,0.1,0.1c0.3-0.7,0.7-1.3,1.6-1.4c-0.4-0.2-0.7-0.4-1.1-0.5
		c-0.3-0.1-0.6,0-0.6,0.4C21.2,12.6,21.2,13,21.2,13.5z M74.2,34.8c1,0.8,3.2,0.9,3.7,0C76.6,34.8,75.4,34.8,74.2,34.8z M41.2,69.1
		c0.4-0.1,0.8-0.2,1-0.3c0.1-0.1,0.2-0.4,0.2-0.6c0-0.1-0.3-0.2-0.5-0.2c-0.3,0-0.5,0.2-0.8,0.2c-0.2,0.1-0.5,0.2-0.4,0.5
		C40.9,68.9,41.1,69,41.2,69.1z M39.9,64.3c0.1,0.2,0.3,0.5,0.3,0.5c0.5-0.1,1-0.3,1.5-0.5c0.1,0,0.1-0.3,0-0.5
		c0-0.1-0.3-0.1-0.4-0.1C40.9,63.9,40.5,64.1,39.9,64.3z M39,60c0.1,0.1,0.2,0.2,0.2,0.2c0.6-0.1,1.1-0.1,1.6-0.2
		c0.1,0,0.1-0.4,0-0.6c0-0.1-0.3-0.2-0.4-0.1C39.9,59.5,39.5,59.7,39,60z M80.6,31.3c0.1,0,0.1,0,0.2,0.1c0.7-1.2,1.1-2.6,1.6-3.9
		c-0.1,0-0.1,0-0.2-0.1C81.7,28.7,81.2,30,80.6,31.3z M40.5,57.9c-0.2-0.1-0.3-0.3-0.4-0.3c-0.6,0.1-1.1,0.3-1.7,0.5
		C38.7,58.7,39.5,58.6,40.5,57.9z M41.6,72.7c0.3,0.3,0.5,0.5,0.7,0.7c0.2-0.2,0.6-0.4,0.5-0.6c-0.1-0.3-0.3-0.5-0.5-0.8
		C42.1,72.3,41.9,72.4,41.6,72.7z M37.7,56.5c0.6-0.1,1.2-0.1,1.7-0.2c0.1,0,0.2-0.1,0.3-0.2c-0.1-0.1-0.2-0.3-0.3-0.3
		c-0.6,0-1.2,0-1.9,0C37.6,56.2,37.7,56.3,37.7,56.5z"/>
	<path class="st0" d="M31.3,87.7c0.2,0,0.3,0.1,0.4,0.1c0.8-0.3,1.4,0.2,2.1,0.5c1,0.4,1.3,1.4,1.5,2.3c0.2,0.9,0.2,1.8,0.1,2.7
		c-0.2,1.9-1.5,2.8-3.1,3.5c-1.4,0.6-2.8,0.6-4.3,0.5c-0.9,0-1.8,0-2.7,0c-0.7,0-0.8,0-0.9-0.8c-0.1-1.4-0.3-2.7-0.4-4.1
		c-0.3-2.3-0.6-4.5-0.8-6.8c-0.1-0.7-0.2-1.5-0.3-2.2c-0.1-0.4,0.1-0.6,0.5-0.6c0,0,0,0,0.1,0c1.1-0.1,1.1-0.1,1.5,1
		c0.5-0.2,0.9-0.4,1.4-0.6c1.4-0.6,3.9,0,4.9,1.1c0.9,0.9,0.7,2.2,0.2,3.1C31.5,87.5,31.4,87.6,31.3,87.7z M25.8,90.6
		c0.1,0.8,0.2,1.7,0.3,2.5c0.1,0.8,0.3,1.6,0.4,2.5c0.1,0.4,0.3,0.6,0.7,0.6c1,0,2,0,3-0.2c2.5-0.5,3.8-2.3,3.4-4.8
		c0-0.2-0.1-0.5-0.2-0.7c-0.1-0.7-0.6-1.1-1.1-1.3c-0.4-0.2-0.9-0.3-1.3-0.2c-1.3,0.1-2.5,0.1-3.8,0.3
		C25.7,89.4,25.7,89.4,25.8,90.6z M25.6,88.4c1.6-0.2,3.3,0,4.5-1.5c0.7-0.8,0.4-2-0.6-2.2c-0.3-0.1-0.7-0.2-1.1-0.2
		c-0.9-0.1-1.8-0.1-2.7,0.3c-0.3,0.1-0.6,0.3-0.5,0.8C25.3,86.5,25.5,87.4,25.6,88.4z"/>
	<path class="st0" d="M68.1,91.4c0.5,0.6,0.9,1.1,1.3,1.6c0.3,0.3,0.6,0.7,1,0.9c0.5,0.2,1,0.3,1.3,0.3c0.3-0.3,0.5-0.4,0.6-0.6
		c0.2,0.2,0.3,0.5,0.5,0.7c0.1,0.2,0.1,0.4,0.1,0.6c0,0.2-0.2,0.4-0.3,0.6c-0.2-0.1-0.3-0.2-0.5-0.3c-0.2-0.1-0.4-0.3-0.7-0.3
		c-1.5-0.1-2.6-0.9-3.5-2c-0.4-0.4-0.8-0.9-1.2-1.3c-0.1,1-0.2,2,0.4,2.8c0.2,0.3,0.3,0.7,0.4,1c-0.4,0-0.7,0.1-1.1,0.1
		c-0.4,0-0.8,0-1.2,0c-0.2,0-0.4-0.2-0.5-0.4c-0.1-0.1,0.1-0.3,0.2-0.5c0.4-0.5,0.7-1,0.7-1.7c-0.1-2-0.1-3.9-0.1-5.9
		c0-0.5,0.1-0.9,0-1.4c-0.1-0.4-0.4-0.7-0.5-1.1c-0.1-0.2-0.1-0.4-0.2-0.6c0.2,0,0.4-0.1,0.5-0.1c0.4,0,0.8,0.1,1.2,0.2
		c0.3,0.1,0.5,0.3,0.8,0.4c0.2,0.1,0.4,0.1,0.5,0.1c0.2,0,0.4-0.1,0.6-0.2c0.8-0.2,1.5,0,2.2,0.6c1.6,1.5,1.8,3.3,0.3,4.8
		c-0.4,0.5-1.2,0.6-1.8,0.9C68.8,91.2,68.6,91.3,68.1,91.4z M66.6,88.6C66.6,88.6,66.6,88.6,66.6,88.6c0,0.3-0.1,0.7,0,1
		c0,0.2,0.1,0.4,0.3,0.6c0.8,0.5,2.4,0.1,2.7-0.8c0.2-0.5,0.5-1.1,0.5-1.6c0-0.6-0.1-1.2-0.2-1.7c-0.1-0.3-0.4-0.5-0.8-0.5
		c-1.3,0.1-2.3,1.1-2.4,2.4C66.6,88.1,66.6,88.4,66.6,88.6z"/>
	<path class="st0" d="M48.9,95.3c-0.4,0.5-0.8,0.6-1.5,0.4c-0.2-0.1-0.4,0.1-0.6,0c-0.2,0-0.5-0.1-0.6-0.3c-0.2-0.3,0-0.6,0.3-0.6
		c0.7-0.1,0.7-0.5,0.7-1.1c0-2,0.1-4.1,0.1-6.1c0-0.5-0.1-1-0.4-1.4c-0.4-0.5-0.3-0.7,0.3-0.9c0.4-0.1,0.8-0.2,1.2-0.3
		c0.5-0.1,0.7,0.1,0.6,0.6c-0.1,0.6-0.2,1.3-0.3,1.9c-0.1,1-0.2,1.9-0.3,3c0.2-0.1,0.3-0.1,0.4-0.2c1.1-1.1,2.2-2.3,3.4-3.4
		c0.4-0.4,0.7-0.7,1.1-1.1c0.3-0.2,0.6-0.5,0.9-0.2c0.2,0.3,0.4,0.8,0.4,1.2c0,0.5-0.5,0.8-0.9,0.9c-0.6,0.1-1.1,0.5-1.5,0.9
		c-0.1,0.1-0.2,0.4-0.2,0.5c0.2,0.9,0.5,1.8,0.8,2.8c0.1,0.4,0.3,0.7,0.4,1.1c0.1,0.3,0.3,0.5,0.6,0.6c0.4,0.1,0.7,0.3,1.1,0.5
		c0.1,0,0.1,0.1,0.2,0.2c0.2,0.4-0.2,1.1-0.7,1.5c-0.4,0.2-0.8,0.1-1.2-0.2c-0.7-0.8-1.1-1.8-1.5-2.8c-0.2-0.8-0.5-1.5-0.7-2.3
		c-0.1-0.4-0.4-0.5-0.7-0.1c-0.5,0.5-0.9,1.1-1.4,1.6c-0.1,0.1-0.1,0.1-0.2,0.2C48.7,93.2,48.5,94.3,48.9,95.3z"/>
	<path class="st0" d="M56.5,86.3c-0.2,0-0.3,0-0.4,0c-0.4-0.1-0.6-0.4-0.3-0.8c0.3-0.5,0.9-0.6,1.4-0.6c1.3,0,2.5,0.1,3.8,0.1
		c0.6,0,1-0.1,1.4-0.6c0.5,0.1,0.7,0.5,0.7,0.9c0,0.6,0,1.3,0,1.9c0,0.3-0.2,0.5-0.3,0.8c-0.3-0.2-0.7-0.4-0.9-0.7
		c-0.2-0.2-0.1-0.6-0.1-0.8c0-0.4-0.2-0.6-0.6-0.5c-1,0.1-2,0.2-3,0.3c0,1.3,0,2.6,0,3.9c0.5,0.1,1.1,0.2,1.7,0.2
		c0.5,0,0.7-0.2,0.7-0.7c0-0.1,0-0.1,0-0.2c0.1-0.2,0.1-0.4,0.2-0.7c0.1,0.2,0.3,0.4,0.4,0.7c0.1,0.6,0.1,1.3,0.1,1.9
		c0,0.3,0.1,0.7-0.4,0.8c-0.1,0-0.3-0.4-0.4-0.7c0-0.1,0-0.2,0-0.4c-0.7,0-1.4-0.1-2.1-0.1c-0.1,0-0.2,0.2-0.2,0.3
		c0,1.1,0,2.2,0,3.5c1-0.1,2.2-0.2,3.3-0.3c0.2,0,0.3-0.3,0.4-0.5c0.1-0.3,0.1-0.7,0.2-1c0-0.1,0.2-0.3,0.2-0.3
		c0.1,0,0.3,0.1,0.4,0.2c0.1,0.9,0.2,1.8,0.3,2.7c0,0.1-0.1,0.3-0.3,0.4c-0.1,0-0.3-0.1-0.4-0.2c-0.3-0.4-0.7-0.5-1.2-0.4
		c-1.5,0.2-3.1,0.4-4.6,0.5c-0.3,0-0.7,0.2-0.8-0.3c-0.1-0.4,0-0.6,0.4-0.6c0.4,0,0.5-0.3,0.6-0.6c0.5-2.4,0.4-4.7,0.2-7.1
		C56.5,87,56.5,86.7,56.5,86.3z"/>
	<path class="st0" d="M43.3,90.4c0.3,0.2,0.6,0.4,0.9,0.6c-0.2,0.3-0.4,0.5-0.6,0.8c-0.1,0-0.1-0.1-0.2-0.1c0,0.9,0.3,1.8,0.6,2.7
		c0,0.1,0.2,0.1,0.3,0.2c0.2,0.1,0.3,0.3,0.4,0.4c-0.1,0.1-0.3,0.3-0.4,0.4c-0.8,0.1-1.6,0.1-2.3,0.1c-0.1,0-0.3-0.3-0.4-0.4
		c0.1-0.1,0.2-0.3,0.4-0.3c0.4,0,0.6-0.2,0.5-0.6c-0.1-0.7-0.3-1.3-0.4-2c0-0.1-0.1-0.3-0.2-0.3c-0.6-0.1-1.2-0.1-1.7-0.1
		c-0.1,0-0.2,0.2-0.3,0.3c-0.3,0.8-0.5,1.5-0.7,2.3c-0.1,0.5,0,0.7,0.5,0.7c0.3,0,0.5,0,0.8,0c0,0.1,0,0.2,0.1,0.3
		c-0.3,0.1-0.5,0.4-0.8,0.4c-0.9,0.1-1.7,0.1-2.6,0c-0.2,0-0.3-0.2-0.5-0.3c0.2-0.1,0.3-0.3,0.5-0.4c1.2-0.2,1.3-0.3,1.5-1.5
		c0-0.2,0.1-0.5,0.2-0.7c0.1-0.4,0.3-0.7-0.3-1c-0.1-0.1-0.2-0.5-0.1-0.7c0-0.1,0.2-0.3,0.4-0.3c0.5,0,0.6-0.3,0.7-0.7
		c0.4-1.3,0.7-2.6,1.1-3.9c0.1-0.5,0.4-0.7,0.9-0.4c0.3,0.2,0.7,0.6,0.8,0.9c0.3,1.2,0.6,2.4,0.9,3.6c0,0.1,0,0.2,0,0.3
		C43.3,90.5,43.3,90.4,43.3,90.4z M41.3,87.5c-0.1,0-0.1,0-0.2,0c-0.2,1-0.5,2-0.7,3.1c0.4,0,0.7,0,1.1,0c0.3,0,0.4-0.1,0.4-0.4
		C41.6,89.3,41.5,88.4,41.3,87.5z"/>
	<path class="st0" d="M75.3,85.5c0.2,1.1,0.3,2.2,1.4,2.9c0.3-1,1-1.7,0.7-2.8c-0.2-0.5,0.1-0.8,0.6-0.7c0.6,0.1,1.3,0.2,1.9,0.4
		c0.1,0,0.2,0.2,0.3,0.3c-0.1,0.1-0.2,0.2-0.3,0.3c-0.3,0.2-0.8,0.4-0.9,0.7c-1.3,2.4-2.6,4.9-3.9,7.3c-0.2,0.4-0.3,0.7,0,1
		c0.1,0.1,0,0.4,0,0.6c-0.2,0-0.4,0-0.6-0.1c-0.4-0.2-0.8-0.5-1.1-0.8c-0.3-0.3-0.4-0.8-0.6-1.2c0-0.1,0.1-0.4,0.2-0.4
		c0.1-0.1,0.4,0,0.5,0.1c0.5,0.4,0.6,0.4,0.9-0.2c0.5-1,1-2.1,1.5-3.1c0.2-0.3,0.1-0.6-0.1-0.8c-0.2-0.2-0.3-0.3-0.5-0.5
		c-0.6-0.4-1-1-1.2-1.7c-0.2-0.6-0.5-1.1-0.7-1.7c-0.2-0.4,0-0.6,0.4-0.6c0.7,0,1.3,0.1,2,0.2c0.1,0,0.2,0.2,0.3,0.3
		c-0.1,0.1-0.2,0.2-0.3,0.3C75.6,85.4,75.5,85.4,75.3,85.5z"/>
	<path class="st0" d="M20.2,90.9c0,0.7-0.4,1.1-1.1,1.1c-0.7,0-1.3-0.5-1.3-1.2c0-0.7,0.7-1.3,1.3-1.3
		C19.7,89.5,20.3,90.2,20.2,90.9z"/>
	<path class="st0" d="M81.5,91.9c-0.5,0-1-0.4-1-0.9c0-0.4,0.5-1.1,0.9-1.1c0.4,0,1.3,0.7,1.3,1C82.7,91.3,82,91.9,81.5,91.9z"/>
	<path class="st0" d="M40.1,48.8c0.3,0,0.5,0,0.8,0c2.3,0.1,4.6,0.4,6.9,0.4c4.9,0.1,9.7,0.1,14.6,0.1c0.9,0,1.9,0,2.8,0
		c0.2,0,0.3,0.1,0.5,0.2c-0.2,0.1-0.3,0.2-0.5,0.2c-2.2,0-4.4,0.1-6.6,0.1c-3.8,0-7.5,0-11.3-0.1c-2.2-0.1-4.4-0.3-6.6-0.4
		c-0.2,0-0.4-0.2-0.6-0.2C40.1,49,40.1,48.9,40.1,48.8z"/>
	<path class="st0" d="M30.6,53.1c0.2-0.6,0.7-0.4,1.1-0.4c1.2,0.1,2.4,0.2,3.5,0.2c2.8,0,5.7,0,8.5-0.1c0.8,0,1.5-0.1,2.3-0.1
		c0.3,0,0.9,0,0.8,0.5c-0.1,0.5-0.5,0.2-0.9,0.2c-0.5,0-1,0-1.5,0c-1.1,0-2.3,0.1-3.4,0.1c-2.1,0-4.3,0-6.4,0
		c-1.2,0-2.5-0.2-3.7-0.2C30.8,53.2,30.7,53.1,30.6,53.1z"/>
	<path class="st0" d="M65.8,54.2c-2.2,0-4.5,0-6.7,0c-0.3,0-0.7-0.1-1-0.1c-0.1,0-0.2-0.2-0.4-0.3c0.1-0.1,0.3-0.2,0.4-0.2
		c1.3,0,2.5,0.1,3.8,0.1c1.2,0,2.4,0.1,3.5,0c2.2,0,4.3-0.1,6.5-0.2c0.2,0,0.4-0.1,0.5,0c0.2,0.1,0.3,0.2,0.4,0.3
		c-0.2,0.1-0.4,0.4-0.6,0.4c-0.6,0-1.2-0.1-1.9-0.1C68.9,54.2,67.4,54.2,65.8,54.2C65.8,54.2,65.8,54.2,65.8,54.2z"/>
	<path class="st0" d="M46.9,16.1c0-0.2-0.1-0.4,0-0.5c0.2-0.4,0.4-0.7,0.6-1c1-1.1,2-2.2,3-3.4c0.3-0.3,0.5-0.7,0.8-1
		c0.1-0.1,0.3-0.1,0.4-0.2c0,0.1,0,0.3-0.1,0.4c-0.5,0.6-1.1,1.2-1.7,1.9c-0.9,1.1-1.7,2.3-2.6,3.4c-0.1,0.1-0.2,0.2-0.3,0.3
		C47,16.1,47,16.1,46.9,16.1z"/>
	<path class="st0" d="M75.9,11.7c-0.1,0.2-0.1,0.4-0.2,0.7c-1.6,4.3-3.3,8.7-4.9,13c-0.2,0.6-0.5,1.3-0.7,1.9
		c-0.1,0.3-0.1,0.6-0.2,0.9c-0.4,0.1-0.6-0.1-0.4-0.6c0.2-0.6,0.4-1.2,0.6-1.8c1.8-4.6,3.6-9.1,5.3-13.7c0.1-0.2,0.2-0.3,0.2-0.5
		C75.8,11.7,75.9,11.7,75.9,11.7z"/>
	<path class="st0" d="M70.8,34.8c0,0.2,0,0.5-0.1,0.7c-0.7,2-1.5,4.1-2.3,6.1c-0.1,0.3-0.2,0.6-0.3,0.9c-0.1,0.2-0.2,0.4-0.3,0.5
		c-0.1,0-0.1,0-0.2-0.1c0-0.2,0-0.5,0.1-0.7c0.8-2.2,1.6-4.4,2.5-6.6c0.1-0.3,0.2-0.6,0.3-0.9C70.6,34.8,70.7,34.8,70.8,34.8z"/>
	<path class="st0" d="M75.4,21.2c-0.1,0.2-0.1,0.4-0.2,0.6c-0.6,1.7-1.2,3.5-1.8,5.2c-0.1,0.2-0.2,0.3-0.4,0.5
		c-0.1-0.2-0.2-0.4-0.2-0.5c0.7-1.8,1.4-3.7,2.1-5.5c0-0.1,0.2-0.2,0.2-0.3C75.2,21.1,75.3,21.2,75.4,21.2z"/>
	<path class="st0" d="M75,31.4c0.1-0.3,0.1-0.6,0.3-0.9c0.4-0.8,0.9-1.6,1.4-2.4c0.1-0.1,0.2-0.1,0.3-0.2c0,0.1,0.1,0.3,0.1,0.4
		c-0.4,0.7-0.8,1.5-1.2,2.2c-0.2,0.3-0.4,0.7-0.5,1C75.1,31.4,75.1,31.4,75,31.4z"/>
	<path class="st0" d="M85.1,13c-0.1,0.2-0.2,0.4-0.2,0.5c-0.6,1.3-1.3,2.5-1.9,3.7c0.1-1.7,1.3-2.9,2-4.4C85,12.9,85,12.9,85.1,13z"
		/>
	<path class="st0" d="M54.6,72.9c-0.2,0.6-0.3,1.3-0.6,1.8c-0.4,0.9-1.5,1.2-2.5,0.8c-1-0.4-1.6-1.4-1.3-2.4
		c0.1-0.5,0.4-1.1,0.6-1.6c0.1-0.3,0.2-0.5,0.3-0.8c0.1-0.3,0.2-0.7,0.4-0.8c0.5-0.2,1.1-0.3,1.7,0C54.2,70.7,54.5,71.7,54.6,72.9z
		 M53.7,72.7c0-0.4,0-0.6-0.1-0.8c-0.1-0.5-0.5-0.9-1-0.9c-0.2,0-0.6,0.2-0.8,0.4c-0.2,0.2-0.4,0.5-0.5,0.8
		c-0.1,0.7-0.2,1.4-0.2,2.1c0,0.1,0.1,0.2,0.2,0.2c0.9,0.5,1.8,0.1,2.1-0.8C53.6,73.3,53.7,72.9,53.7,72.7z"/>
	<path class="st0" d="M58.6,66.6c0-0.2-0.2-0.4-0.1-0.6c0.1-0.6,0.3-1.2,0.5-1.7c1-2,2-4.1,2.7-6.3c0.1-0.3,0.3-0.6,0.5-0.9
		c0.1-0.1,0.2-0.1,0.3-0.1c0,0.1,0.1,0.3,0.1,0.4c-0.1,0.3-0.2,0.5-0.3,0.8c-0.9,2-1.7,3.9-2.5,5.9c-0.3,0.7-0.5,1.4-0.7,2.1
		c-0.1,0.1-0.1,0.3-0.2,0.4C58.7,66.6,58.7,66.6,58.6,66.6z"/>
</g>
</svg>
